<svg xmlns="http://www.w3.org/2000/svg" width="75.945" height="92.787" viewBox="0 0 75.945 92.787">
  <g id="file" transform="translate(-86.9)">
    <path id="Path_16633" data-name="Path 16633" d="M257.794,108.4h-2.713v66.654a8.043,8.043,0,0,1-8.033,8.032H197.7v2.471a5.128,5.128,0,0,0,5.126,5.126h54.959a5.128,5.128,0,0,0,5.126-5.126V113.526A5.119,5.119,0,0,0,257.794,108.4Z" transform="translate(-100.064 -97.897)" fill="#ff7364"/>
    <path id="Path_16634" data-name="Path 16634" d="M119.5,82.283h27.48a5.128,5.128,0,0,0,5.126-5.126V5.126A5.128,5.128,0,0,0,146.975,0H110.358V1.7a4.98,4.98,0,0,1,.029.543v14.04a7.224,7.224,0,0,1-7.219,7.219H89.129c-.145,0-.3-.01-.446-.019H86.9v53.68a5.128,5.128,0,0,0,5.126,5.126H119.5Zm1.037-17.422H102.616a2.422,2.422,0,1,1,0-4.845h17.926a2.422,2.422,0,1,1-.01,4.845ZM138.458,52.5H102.616a2.422,2.422,0,1,1,0-4.845h35.842a2.422,2.422,0,1,1,0,4.845ZM102.616,34.524h35.842a2.422,2.422,0,1,1,0,4.845H102.616a2.422,2.422,0,1,1,0-4.845Z" fill="#3639a3"/>
    <path id="Path_16635" data-name="Path 16635" d="M89.712,21.313h14.079a4.3,4.3,0,0,0,4.263-4.263V2.961A2.157,2.157,0,0,0,105.884.8a2.1,2.1,0,0,0-1.512.64L88.181,17.631A2.158,2.158,0,0,0,89.712,21.313Z" transform="translate(-0.583 -0.722)" fill="#c1c2d8"/>
  </g>
</svg>
