<svg xmlns="http://www.w3.org/2000/svg" width="179.43" height="153.302" viewBox="0 0 179.43 153.302">
  <g id="finances" transform="translate(0 -70.247)">
    <g id="Group_578" data-name="Group 578" transform="translate(-0.001 70.247)">
      <path id="Path_16628" data-name="Path 16628" d="M724.661,719.29a9.3,9.3,0,0,0,9.3-9.3V688.1l-.67.446a10.213,10.213,0,0,1-12.814-1.079,10.1,10.1,0,0,1-3.124-6.565c-4.668-.428-9.3-.986-13.855-1.655v30.742a9.3,9.3,0,0,0,9.3,9.3Z" transform="translate(-572.663 -565.989)" fill="#c1c2d8"/>
      <path id="Path_16629" data-name="Path 16629" d="M494.882,674.275a9.3,9.3,0,0,0,9.3-9.3V632.114l-1.116-.223c-4.742-.967-9.485-2.083-14.115-3.31-5.189-1.376-10.3-2.938-15.25-4.63v41.008a9.3,9.3,0,0,0,9.3,9.3h11.884Z" transform="translate(-385.602 -520.974)" fill="#c1c2d8"/>
      <path id="Path_16630" data-name="Path 16630" d="M265.261,583.919a9.3,9.3,0,0,0,9.3-9.3V528.981c-.744-.3-1.469-.614-2.195-.93a182.933,182.933,0,0,1-25.479-13.3c-.948-.595-1.878-1.19-2.79-1.8v61.67a9.3,9.3,0,0,0,9.3,9.3h11.865Z" transform="translate(-198.7 -430.618)" fill="#ff7364"/>
      <path id="Path_16631" data-name="Path 16631" d="M23.7,381.632H35.562a9.3,9.3,0,0,0,9.3-9.3V301.7c-1.246-1.023-2.473-2.046-3.664-3.087A116.563,116.563,0,0,1,21.056,276,97.853,97.853,0,0,1,14.4,264.448V372.333A9.3,9.3,0,0,0,23.7,381.632Z" transform="translate(-11.72 -228.331)" fill="#ff7364"/>
      <path id="Path_16632" data-name="Path 16632" d="M3.979,95.02c.614,1.748,1.283,3.5,2.027,5.207.391.893.781,1.8,1.209,2.7.019.056.056.112.074.167.93,1.99,1.971,3.961,3.087,5.914s2.306,3.887,3.608,5.8q2.427,3.6,5.207,7.049c.372.465.744.911,1.134,1.376.763.911,1.544,1.823,2.343,2.715.409.446.8.893,1.209,1.339q2.455,2.678,5.133,5.244c1.339,1.283,2.734,2.548,4.147,3.794a137.235,137.235,0,0,0,12.256,9.522c.465.316.93.651,1.413.967s.948.632,1.432.967c.967.632,1.934,1.265,2.92,1.879,1.432.911,2.883,1.785,4.37,2.659,1.971,1.153,3.98,2.288,6.007,3.366.5.279,1.023.539,1.544.818,2.566,1.339,5.207,2.641,7.885,3.868,1.618.744,3.236,1.469,4.891,2.176h0c3.98,1.692,8.053,3.292,12.256,4.78h0c.67.242,1.358.465,2.027.707q7.142,2.427,14.655,4.445c2.269.595,4.556,1.172,6.844,1.711l1.73.391c1.73.391,3.459.762,5.207,1.116h0q6.053,1.227,12.256,2.157h.019c.725.112,1.432.2,2.157.316.223.037.428.056.651.093l1.618.223c.223.037.428.056.651.093.632.074,1.265.167,1.9.242.112.019.2.019.316.037l2.344.279a.168.168,0,0,1,.093.019c.744.074,1.469.167,2.213.242.112.019.223.019.335.037.707.074,1.432.149,2.139.2.056,0,.112.019.167.019,1.618.149,3.217.279,4.835.409v4.315a4.64,4.64,0,0,0,7.272,3.831l3.794-2.585,16.031-10.88a4.641,4.641,0,0,0,.074-7.644l-19.825-14a4.562,4.562,0,0,0-2.659-.856,4.653,4.653,0,0,0-4.668,4.649v4.5q-9.848-.781-19.416-2.343-6.193-1-12.256-2.344c-3.031-.67-6.025-1.395-9-2.195a193.648,193.648,0,0,1-21.48-7.03Q81.819,145,75.9,142.127a152.109,152.109,0,0,1-14.785-8.183,125.514,125.514,0,0,1-15.678-11.6,120.926,120.926,0,0,1-16.161-17.891C22.39,95.484,19.824,82.187,18.894,75.1a5.561,5.561,0,0,0-5.524-4.854H5.578A5.571,5.571,0,0,0,.017,76.254,73.52,73.52,0,0,0,2.7,90.928C3.068,92.286,3.514,93.662,3.979,95.02Z" transform="translate(0.001 -70.247)" fill="#3639a3"/>
    </g>
  </g>
</svg>
