<svg xmlns="http://www.w3.org/2000/svg" width="58.975" height="46.395" viewBox="0 0 58.975 46.395">
  <g id="more" transform="translate(0 -100.501)">
    <g id="Group_580" data-name="Group 580" transform="translate(0 100.501)">
      <path id="Path_16639" data-name="Path 16639" d="M507.329,103.091a3.131,3.131,0,0,0-4.425,0L480.7,125.3c.25.469.482.945.688,1.439a16.865,16.865,0,0,1,1.339,6.615c0,.438-.019.87-.05,1.3l25.9-25.9a3.131,3.131,0,0,0,0-4.425Z" transform="translate(-450.614 -102.071)" fill="#ff7364"/>
      <circle id="Ellipse_709" data-name="Ellipse 709" cx="7.873" cy="7.873" r="7.873" transform="translate(43.228 22.093)" fill="#c1c2d8"/>
      <circle id="Ellipse_710" data-name="Ellipse 710" cx="7.873" cy="7.873" r="7.873" transform="translate(21.135 0)" fill="#c1c2d8"/>
      <path id="Path_16640" data-name="Path 16640" d="M15.114,388.936A15.118,15.118,0,1,0,0,373.822,15.118,15.118,0,0,0,15.114,388.936ZM6.14,372.7A1.565,1.565,0,0,1,7.7,371.137H12.43v-4.725a1.565,1.565,0,0,1,1.565-1.565h2.241a1.565,1.565,0,0,1,1.565,1.565v4.725h4.725a1.56,1.56,0,0,1,1.371.814,1.6,1.6,0,0,1,.194.751v2.241a1.565,1.565,0,0,1-1.565,1.565H17.8v4.725a1.565,1.565,0,0,1-1.565,1.565H13.994a1.565,1.565,0,0,1-1.565-1.565v-4.725H7.7a1.565,1.565,0,0,1-1.565-1.565V372.7Z" transform="translate(0 -342.541)" fill="#3639a3"/>
    </g>
  </g>
</svg>
