<svg xmlns="http://www.w3.org/2000/svg" xmlns:xlink="http://www.w3.org/1999/xlink" width="185" height="31" viewBox="0 0 185 31">
  <defs>
    <clipPath id="clip-path">
      <rect id="Rectangle_92" data-name="Rectangle 92" width="20" height="31" transform="translate(268.722 85.667)" fill="#e2e2e2"/>
    </clipPath>
    <clipPath id="clip-path-2">
      <rect id="Rectangle_93" data-name="Rectangle 93" width="19" height="31" fill="#ff7364"/>
    </clipPath>
  </defs>
  <g id="stars" transform="translate(-47.722 -85.667)">
    <g id="Group_23" data-name="Group 23" transform="translate(47.723 85.893)">
      <g id="Group_22" data-name="Group 22" transform="translate(0)">
        <path id="Path_38" data-name="Path 38" d="M61.985,86.952l-3.351,6.789a2.376,2.376,0,0,1-1.789,1.3L49.353,96.13A1.9,1.9,0,0,0,48.3,99.372l5.422,5.285a2.376,2.376,0,0,1,.683,2.1l-1.28,7.463a1.9,1.9,0,0,0,2.758,2l6.7-3.523a2.376,2.376,0,0,1,2.211,0l6.7,3.523a1.9,1.9,0,0,0,2.758-2l-1.28-7.463a2.375,2.375,0,0,1,.683-2.1l5.422-5.285a1.9,1.9,0,0,0-1.053-3.242l-7.493-1.089a2.376,2.376,0,0,1-1.789-1.3L65.4,86.952A1.9,1.9,0,0,0,61.985,86.952Z" transform="translate(-47.723 -85.893)" fill="#ff7364"/>
      </g>
    </g>
    <g id="Group_25" data-name="Group 25" transform="translate(85.528 85.893)">
      <g id="Group_24" data-name="Group 24">
        <path id="Path_39" data-name="Path 39" d="M147,86.952l-3.351,6.789a2.376,2.376,0,0,1-1.789,1.3L134.37,96.13a1.9,1.9,0,0,0-1.053,3.242l5.422,5.285a2.376,2.376,0,0,1,.683,2.1l-1.28,7.463a1.9,1.9,0,0,0,2.758,2l6.7-3.523a2.376,2.376,0,0,1,2.211,0l6.7,3.523a1.9,1.9,0,0,0,2.758-2l-1.28-7.463a2.375,2.375,0,0,1,.683-2.1l5.422-5.285a1.9,1.9,0,0,0-1.053-3.242l-7.493-1.089a2.376,2.376,0,0,1-1.789-1.3l-3.351-6.789A1.9,1.9,0,0,0,147,86.952Z" transform="translate(-132.74 -85.893)" fill="#ff7364"/>
      </g>
    </g>
    <g id="Group_27" data-name="Group 27" transform="translate(123.333 85.893)">
      <g id="Group_26" data-name="Group 26">
        <path id="Path_40" data-name="Path 40" d="M232.018,86.952l-3.351,6.789a2.376,2.376,0,0,1-1.789,1.3l-7.493,1.089a1.9,1.9,0,0,0-1.053,3.242l5.422,5.285a2.376,2.376,0,0,1,.683,2.1l-1.28,7.463a1.9,1.9,0,0,0,2.758,2l6.7-3.523a2.376,2.376,0,0,1,2.211,0l6.7,3.523a1.9,1.9,0,0,0,2.758-2l-1.28-7.463a2.375,2.375,0,0,1,.683-2.1l5.422-5.285a1.9,1.9,0,0,0-1.053-3.242l-7.493-1.089a2.376,2.376,0,0,1-1.789-1.3l-3.351-6.789A1.9,1.9,0,0,0,232.018,86.952Z" transform="translate(-217.756 -85.893)" fill="#ff7364"/>
      </g>
    </g>
    <g id="Group_29" data-name="Group 29" transform="translate(162.764 85.893)">
      <g id="Group_28" data-name="Group 28">
        <path id="Path_41" data-name="Path 41" d="M320.692,86.952l-3.351,6.789a2.376,2.376,0,0,1-1.789,1.3L308.06,96.13a1.9,1.9,0,0,0-1.053,3.242l5.422,5.285a2.376,2.376,0,0,1,.683,2.1l-1.28,7.463a1.9,1.9,0,0,0,2.758,2l6.7-3.523a2.376,2.376,0,0,1,2.211,0l6.7,3.523a1.9,1.9,0,0,0,2.758-2l-1.28-7.463a2.375,2.375,0,0,1,.683-2.1l5.422-5.285a1.9,1.9,0,0,0-1.053-3.242l-7.493-1.089a2.376,2.376,0,0,1-1.789-1.3L324.1,86.952A1.9,1.9,0,0,0,320.692,86.952Z" transform="translate(-306.43 -85.893)" fill="#ff7364"/>
      </g>
    </g>
    <g id="Group_38" data-name="Group 38" transform="translate(47.722 90.072)">
      <g id="Group_37" data-name="Group 37">
        <path id="Path_45" data-name="Path 45" d="M55.882,121.445l4.563-2.4V95.291l-1.811,3.67a2.376,2.376,0,0,1-1.789,1.3l-7.493,1.089a1.9,1.9,0,0,0-1.053,3.242l5.422,5.285a2.376,2.376,0,0,1,.683,2.1l-1.28,7.463A1.9,1.9,0,0,0,55.882,121.445Z" transform="translate(-47.722 -95.291)" fill="#ff7364"/>
      </g>
    </g>
    <g id="Mask_Group_8" data-name="Mask Group 8" transform="translate(-56)" clip-path="url(#clip-path)">
      <g id="Group_60" data-name="Group 60" transform="translate(253.789 85.893)">
        <g id="Group_30" data-name="Group 30">
          <path id="Path_42" data-name="Path 42" d="M408.451,86.952,405.1,93.742a2.376,2.376,0,0,1-1.789,1.3l-7.493,1.089a1.9,1.9,0,0,0-1.053,3.242l5.422,5.285a2.376,2.376,0,0,1,.683,2.1l-1.28,7.463a1.9,1.9,0,0,0,2.758,2l6.7-3.523a2.376,2.376,0,0,1,2.211,0l6.7,3.523a1.9,1.9,0,0,0,2.758-2l-1.28-7.463a2.375,2.375,0,0,1,.683-2.1l5.422-5.285a1.9,1.9,0,0,0-1.053-3.242L417,95.041a2.376,2.376,0,0,1-1.789-1.3l-3.351-6.789A1.9,1.9,0,0,0,408.451,86.952Z" transform="translate(-394.189 -85.893)" fill="#e2e2e2"/>
        </g>
      </g>
    </g>
    <g id="Mask_Group_9" data-name="Mask Group 9" transform="translate(194.722 85.667)" clip-path="url(#clip-path-2)">
      <g id="Group_62" data-name="Group 62" transform="translate(3 0.226)">
        <g id="Group_61" data-name="Group 61">
          <path id="Path_135" data-name="Path 135" d="M411.861,86.952l3.351,6.789a2.376,2.376,0,0,0,1.789,1.3l7.493,1.089a1.9,1.9,0,0,1,1.053,3.242l-5.422,5.285a2.376,2.376,0,0,0-.683,2.1l1.28,7.463a1.9,1.9,0,0,1-2.758,2l-6.7-3.523a2.376,2.376,0,0,0-2.211,0l-6.7,3.523a1.9,1.9,0,0,1-2.758-2l1.28-7.463a2.375,2.375,0,0,0-.683-2.1l-5.422-5.285a1.9,1.9,0,0,1,1.053-3.242l7.493-1.089a2.376,2.376,0,0,0,1.789-1.3l3.351-6.789A1.9,1.9,0,0,1,411.861,86.952Z" transform="translate(-394.189 -85.893)" fill="#ff7364"/>
        </g>
      </g>
    </g>
  </g>
</svg>
