<svg xmlns="http://www.w3.org/2000/svg" width="186.994" height="187.858" viewBox="0 0 186.994 187.858">
  <g id="target" transform="translate(-2.188)">
    <g id="Group_577" data-name="Group 577" transform="translate(2.188 0)">
      <path id="Path_16625" data-name="Path 16625" d="M86.635,265.1a84.488,84.488,0,0,0,74.571-124.128,14.884,14.884,0,0,1-2.089.138c-.394,0-.808-.02-1.222-.039l-10.743-.828-7.727,7.727a62.155,62.155,0,1,1-20.107-20.087l7-7-.946-12.32a16.221,16.221,0,0,1,.039-2.937A84.449,84.449,0,1,0,86.635,265.1Z" transform="translate(-2.188 -77.238)" fill="#3639a3"/>
      <path id="Path_16626" data-name="Path 16626" d="M261.261,333.371q.828,0,1.656.059l15.592-15.592.335-.335a41.626,41.626,0,1,0,20.087,20.106l-.335.335L283,353.537q.059.828.059,1.656a21.812,21.812,0,1,1-21.8-21.821Z" transform="translate(-176.814 -251.782)" fill="#c1c2d8"/>
      <path id="Path_16627" data-name="Path 16627" d="M518.594,28.11,523.6,23.1a5.83,5.83,0,0,0,0-8.259l-3.47-3.489a5.806,5.806,0,0,0-8.239,0l-5.736,5.736L504.972,1.814A1.97,1.97,0,0,0,501.621.572l-22.57,22.57a9.869,9.869,0,0,0-2.858,7.727l.059.887,1.084,14.134-8.161,8.161L454.489,68.737l-.335.335L439.942,83.284l-6.308,6.308a4.862,4.862,0,0,0-1.419,3.095l-.394,4.948a4.927,4.927,0,0,0,4.908,5.322h.256l5.224-.256a4.854,4.854,0,0,0,3.233-1.439l6.249-6.249L465.9,80.8l.335-.335L480.924,65.78l8.87-8.871,12.891.986.572.039c.257.02.513.02.749.02a9.913,9.913,0,0,0,6.978-2.878l22.551-22.551a1.968,1.968,0,0,0-1.242-3.351Z" transform="translate(-347.117 0)" fill="#ff7364"/>
    </g>
  </g>
</svg>
