<svg xmlns="http://www.w3.org/2000/svg" width="1434.437" height="1393.827" viewBox="0 0 1434.437 1393.827">
  <g id="header-bg1" transform="matrix(-0.259, -0.966, 0.966, -0.259, -1235.731, 1767.799)">
    <g id="Group_1_copy" data-name="Group 1 copy" transform="translate(-30.208 1539.271)">
      <path id="Ellipse_1" data-name="Ellipse 1" d="M148.446,1822.775c48.515-167.2,312.969-256.843,590.674-200.226s463.5,238.052,414.985,405.25S753.49,2628.527,475.785,2571.911,99.931,1989.972,148.446,1822.775Z" transform="translate(-62.104 -1537.013)" fill="#f6f6fb"/>
      <path id="Ellipse_1_copy_2" data-name="Ellipse 1 copy 2" d="M781.647,2237.246c12.611,126.91-110.877,220.654-286.1,199.176-215.2-26.378-375.346-208.966-313.079-351.749,38.581-88.471,234.938-305.061,375.407-245.32C678.106,1890.489,772.984,2150.073,781.647,2237.246Z" transform="translate(-39.986 -1384.131)" fill="#efedf6"/>
      <path id="Ellipse_1_copy_4" data-name="Ellipse 1 copy 4" d="M566.6,1566.456c82.4-13.765,149.118,62.965,142.809,178.552-7.748,141.956-120.027,254.677-216.1,220.136-59.529-21.4-209.76-140.475-176.909-234.982C344.518,1649.268,510,1575.911,566.6,1566.456Z" transform="translate(57.737 -1564.862)" fill="#54538b"/>
      <path id="Shape_1" data-name="Shape 1" d="M263.887,2765.48s-52.465-355.726,72.431-328.36,157.273,124.238,75.146,130.438-188.229-207.064-128.089-272.943,225.9-102.635,378.45-110.075,410.185-102.287,415.357-221.091,23.414-176.9-74.272-220.436-168.31-166.335-206.262-62.647-2.465,165.51-237.872,252.454-327.864,244.07-406.84,90.1-77.052-270.6-8.436-279.238,349.271,38.809,290.3-75.418-81.516-91.407-112.633-36.379,146.47,352.714,237.011,366.031,182.741-60.664,382.836-31.572,305.6,29.369,258.556,136.709-20.146,190.7-180.647,206.392-105.307,28.375-183.023,5.034" transform="translate(-92.345 -1550.063)" fill="none" stroke="#fff" stroke-width="7.63" opacity="0.588"/>
    </g>
  </g>
</svg>
