<svg xmlns="http://www.w3.org/2000/svg" width="170.725" height="45.115" viewBox="0 0 170.725 45.115">
  <g id="envato" transform="translate(0 11.507)" opacity="0.55">
    <path id="Path_16207" data-name="Path 16207" d="M34.038,9.437c-1.323-.734-8.584-.076-9.673,1.13S9.662,24.047,9.192,36.942c-.085.309-.872-.042-1.027-.137-2.153-4.127-3.006-8.473-1.208-14.742C7.292,21.5,6.2,20.818,6,21.013a22.533,22.533,0,0,0-3.132,4.043,19.635,19.635,0,0,0,34.314,19.1c6.1-10.938.436-32.721-3.142-34.718Z" transform="translate(-0.32 -20.636)" fill="#3639a3"/>
    <path id="Path_16208" data-name="Path 16208" d="M105.425,5.975c-6.535,0-11.279,4.859-11.279,11.553,0,6.749,4.731,11.463,11.507,11.463a10.985,10.985,0,0,0,8.286-3.273,2.424,2.424,0,0,0,.713-1.621,1.845,1.845,0,0,0-1.93-1.884,2.219,2.219,0,0,0-1.576.713,7.571,7.571,0,0,1-5.494,2.3,6.807,6.807,0,0,1-6.915-6.36H113.5c1.6,0,2.385-.751,2.385-2.294a8.569,8.569,0,0,0-.092-1.429c-.8-5.74-4.67-9.166-10.366-9.166h0Zm0,3.584c3.544,0,5.818,2.259,5.958,5.9H98.743A6.6,6.6,0,0,1,105.425,9.559Zm24.553-3.584a8.02,8.02,0,0,0-7.057,4.078V8.588a2.147,2.147,0,1,0-4.268,0v17.7a2.259,2.259,0,1,0,4.5,0V16.8c0-4.128,2.339-7.011,5.688-7.011,3.244,0,4.821,2.129,4.821,6.509v9.99a2.259,2.259,0,1,0,4.5,0v-11.4c0-4.307-2.148-8.908-8.178-8.908h0ZM158.5,6.2A2.353,2.353,0,0,0,156.26,8l-6.152,15.47L144,8a2.388,2.388,0,0,0-2.287-1.8,2.207,2.207,0,0,0-2.249,2.157,3.1,3.1,0,0,0,.282,1.272l7.07,16.693a3.378,3.378,0,0,0,6.487,0l7.116-16.786a3.289,3.289,0,0,0,.281-1.226A2.111,2.111,0,0,0,158.5,6.2Zm13.07-.228a12.83,12.83,0,0,0-7.541,2.254,2.062,2.062,0,0,0-1,1.774,1.75,1.75,0,0,0,1.747,1.791,2.4,2.4,0,0,0,1.334-.474,8.837,8.837,0,0,1,5.05-1.67c3.325,0,5.233,1.691,5.233,4.639v.488c-7.463.008-15.053.909-15.053,7.4,0,4.673,3.993,6.765,7.95,6.765a8.386,8.386,0,0,0,7.284-3.613v1.137a2.065,2.065,0,0,0,2.113,2.294,2.029,2.029,0,0,0,2.019-2.294V14.563c0-5.378-3.416-8.589-9.135-8.589Zm3.876,12.114h.946v1.036c0,3.788-2.412,6.236-6.145,6.236-1.013,0-4.32-.236-4.32-3.272,0-3.585,5.432-4,9.518-4Zm16.97-7.8a1.815,1.815,0,0,0,2.067-1.838,1.834,1.834,0,0,0-2.067-1.883h-4.045V2.476a2.238,2.238,0,1,0-4.45,0V21.907c0,4.484,2.212,6.854,6.4,6.854a7.145,7.145,0,0,0,2.828-.513,2.016,2.016,0,0,0,1.245-1.781,1.733,1.733,0,0,0-1.792-1.793,3.138,3.138,0,0,0-.8.14,3.621,3.621,0,0,1-.931.134c-1.7,0-2.5-1.112-2.5-3.5V10.287h4.045Zm14.867-4.314c-6.8,0-11.735,4.821-11.735,11.461a11.449,11.449,0,0,0,3.365,8.3,11.862,11.862,0,0,0,8.37,3.257,11.413,11.413,0,0,0,11.781-11.554c0-6.641-4.956-11.461-11.781-11.461h0Zm0,19.2c-4.664,0-7.1-3.894-7.1-7.742,0-5.287,3.682-7.694,7.1-7.694s7.1,2.408,7.1,7.694C214.387,22.756,210.705,25.178,207.285,25.178Z" transform="translate(-48.342 -3.382)" fill="#3639a3"/>
  </g>
</svg>
