<svg xmlns="http://www.w3.org/2000/svg" width="166.697" height="43.396" viewBox="0 0 166.697 43.396">
  <g id="github" opacity="0.55">
    <g id="github-2" transform="translate(49.948 6.014)">
      <path id="Path_16206" data-name="Path 16206" d="M22.365,188.576H12.554a.459.459,0,0,0-.459.459v4.8a.459.459,0,0,0,.459.459h3.827v5.959a11.584,11.584,0,0,1-3.235.293c-2.8,0-6.719-1.024-6.719-9.635s4.077-9.746,7.905-9.746a15.525,15.525,0,0,1,5.649.865.461.461,0,0,0,.549-.45l1.094-4.634a.428.428,0,0,0-.175-.358c-.369-.263-2.619-1.522-8.3-1.522-6.55,0-13.268,2.787-13.268,16.182s7.692,15.392,14.174,15.392a15.957,15.957,0,0,0,8.623-2.293.4.4,0,0,0,.149-.348v-14.96a.458.458,0,0,0-.458-.458m50.562-11.909a.457.457,0,0,0-.455-.461H66.947a.459.459,0,0,0-.458.461v10.676H57.88V176.667a.458.458,0,0,0-.456-.461H51.9a.459.459,0,0,0-.456.461v28.907a.46.46,0,0,0,.456.462h5.524a.459.459,0,0,0,.456-.462V193.209h8.611l-.015,12.365a.46.46,0,0,0,.458.462h5.537a.459.459,0,0,0,.456-.462V176.667M32.789,180.46a3.562,3.562,0,1,0-3.562,3.6,3.578,3.578,0,0,0,3.562-3.6m-.4,19.015V186.133a.459.459,0,0,0-.457-.461H26.43a.527.527,0,0,0-.479.514V205.3c0,.562.35.729.8.729h4.961c.544,0,.678-.267.678-.738v-5.818m61.526-13.76H88.438a.46.46,0,0,0-.456.462v14.174a6.193,6.193,0,0,1-3.369,1.019c-1.976,0-2.5-.9-2.5-2.832V186.178a.459.459,0,0,0-.456-.462H76.093a.461.461,0,0,0-.457.462v13.3c0,5.749,3.2,7.155,7.612,7.155a12.846,12.846,0,0,0,6.531-2,11.6,11.6,0,0,0,.2,1.177.483.483,0,0,0,.4.25l3.54-.016a.461.461,0,0,0,.457-.461l0-19.4a.46.46,0,0,0-.458-.462m12.82,15.637a6.571,6.571,0,0,1-3.191-.921v-9.154a7.306,7.306,0,0,1,2.833-.919c1.974-.177,3.876.42,3.876,5.128C110.259,200.453,109.4,201.433,106.741,201.353Zm2.162-16.287a10.307,10.307,0,0,0-5.231,1.389v-9.788a.458.458,0,0,0-.456-.461h-5.54a.459.459,0,0,0-.457.461v28.906a.46.46,0,0,0,.457.462h3.844a.458.458,0,0,0,.4-.245,9,9,0,0,0,.233-1.333,9.912,9.912,0,0,0,6.553,2.147c5.034,0,7.921-2.554,7.921-11.464s-4.611-10.074-7.727-10.074m-60.632.6H44.127l-.006-5.475c0-.207-.107-.311-.346-.311H38.128c-.22,0-.337.1-.337.308v5.657s-2.83.683-3.021.738a.458.458,0,0,0-.331.441v3.555a.458.458,0,0,0,.457.461h2.9V199.6c0,6.352,4.456,6.976,7.462,6.976a12.581,12.581,0,0,0,3.289-.542.427.427,0,0,0,.259-.414l0-3.911a.466.466,0,0,0-.458-.461c-.241,0-.859.1-1.5.1-2.035,0-2.725-.946-2.725-2.171v-8.128h4.144a.459.459,0,0,0,.457-.461V186.13a.458.458,0,0,0-.457-.46" transform="translate(0.122 -175.062)" fill="#3639a3"/>
    </g>
    <path id="github-1_1_" data-name="github-1 (1)" d="M22.029,0a22.027,22.027,0,0,0-5.341,43.4,2.974,2.974,0,0,1-.165-1.046V38.6H13.769a3.763,3.763,0,0,1-3.47-1.873c-.716-1.322-.827-3.36-2.643-4.627-.551-.441-.111-.881.495-.827a5.778,5.778,0,0,1,2.973,2.257,2.812,2.812,0,0,0,2.919,1.432,22.206,22.206,0,0,0,3.084-.221,6.828,6.828,0,0,1,2.919-3.579c-7.379-.881-10.9-4.516-10.9-9.473a9.09,9.09,0,0,1,2.479-5.949c-.495-1.708-1.157-5.233.221-6.609a7.817,7.817,0,0,1,5.782,2.7,16.959,16.959,0,0,1,5.341-.881,16.694,16.694,0,0,1,5.341.881,7.814,7.814,0,0,1,5.782-2.7c1.322,1.322.716,4.9.165,6.609a8.919,8.919,0,0,1,2.424,5.949c0,4.957-3.47,8.592-10.793,9.363,2.038,1.046,3.47,4.02,3.47,6.223V42.3c0,.165-.054.33-.054.495A22.01,22.01,0,0,0,22.029,0Z" fill="#3639a3"/>
  </g>
</svg>
