<svg xmlns="http://www.w3.org/2000/svg" width="156.803" height="51.183" viewBox="0 0 156.803 51.183">
  <g id="google" opacity="0.55">
    <path id="Path_16210" data-name="Path 16210" d="M19.309,0H20.7A19.027,19.027,0,0,1,33.726,5.5c-1.263,1.289-2.552,2.526-3.788,3.815A14.23,14.23,0,0,0,6.049,17.89,14.646,14.646,0,0,0,9.232,29.2a14.081,14.081,0,0,0,10.261,5.051,13.659,13.659,0,0,0,10.208-3.5,11.143,11.143,0,0,0,3.394-7.261c-4.367,0-8.735.026-13.1,0v-5.42h18.39c.947,5.814-.421,12.365-4.841,16.522a17.981,17.981,0,0,1-11.181,5.025A20.535,20.535,0,0,1,10.6,37.306,20.248,20.248,0,0,1,1.208,26.6,19.4,19.4,0,0,1,1.077,13.47a20.03,20.03,0,0,1,7.235-9.6A20.654,20.654,0,0,1,19.309,0Z" transform="translate(0.003)" fill="#3639a3"/>
    <path id="Path_16211" data-name="Path 16211" d="M474.4,5.2h5.63V42.769c-1.868,0-3.762.026-5.63-.026.026-12.5,0-25.02,0-37.543Z" transform="translate(-349.589 -3.832)" fill="#3639a3"/>
    <path id="Path_16212" data-name="Path 16212" d="M164.6,54.046A13.22,13.22,0,0,1,174.7,56.2a12.357,12.357,0,0,1,4.972,7.893,12.722,12.722,0,0,1-13.365,15.259,12.8,12.8,0,0,1-9.576-5.13A13.151,13.151,0,0,1,155,62.281a12.485,12.485,0,0,1,9.6-8.235m.789,5a7.073,7.073,0,0,0-3.683,2.342,8.345,8.345,0,0,0,.421,10.866,7.006,7.006,0,0,0,6.262,1.947,7.085,7.085,0,0,0,4.893-3.6,8.321,8.321,0,0,0-1.421-9.892,7.1,7.1,0,0,0-6.472-1.657Z" transform="translate(-113.692 -39.655)" fill="#3639a3"/>
    <path id="Path_16213" data-name="Path 16213" d="M270.624,54.041a12.791,12.791,0,0,1,12.523,20.6,13.013,13.013,0,0,1-20.389-.421A13.278,13.278,0,0,1,261.1,62.013a12.5,12.5,0,0,1,9.524-7.972m.789,5a7.194,7.194,0,0,0-3.683,2.315,8.357,8.357,0,0,0,.289,10.76,7.04,7.04,0,0,0,6.419,2.078,7.217,7.217,0,0,0,4.893-3.6,8.365,8.365,0,0,0-1.473-9.918,7.053,7.053,0,0,0-6.446-1.631Z" transform="translate(-191.828 -39.65)" fill="#3639a3"/>
    <path id="Path_16214" data-name="Path 16214" d="M372.128,55.565a10.756,10.756,0,0,1,10.313-.789,9.828,9.828,0,0,1,2.684,1.973c.026-.71,0-1.447.026-2.184,1.763.026,3.525,0,5.314.026V77.8c-.026,3.5-.921,7.209-3.446,9.761-2.762,2.815-7,3.683-10.813,3.1A12.234,12.234,0,0,1,367,83.321c1.579-.763,3.236-1.368,4.867-2.078a7.235,7.235,0,0,0,5.13,4.42,6.818,6.818,0,0,0,6.577-2.1c1.631-2,1.631-4.736,1.552-7.182a9.34,9.34,0,0,1-4.288,2.631,11.562,11.562,0,0,1-10.5-2.71,12.951,12.951,0,0,1,1.789-20.731m5.446,3.368a6.921,6.921,0,0,0-4.131,2.394,8.393,8.393,0,0,0,.026,10.55,6.883,6.883,0,0,0,5.919,2.42,6.685,6.685,0,0,0,5.025-3.341,8.88,8.88,0,0,0-.895-9.945A6.474,6.474,0,0,0,377.574,58.932Z" transform="translate(-269.68 -39.648)" fill="#3639a3"/>
    <path id="Path_16215" data-name="Path 16215" d="M510.327,56.86A11.874,11.874,0,0,1,522.4,54.466c3.841,1.447,6.288,5.1,7.524,8.866-5.709,2.368-11.392,4.709-17.1,7.077a6.784,6.784,0,0,0,3.631,3.42,7.37,7.37,0,0,0,6.946-1,11.2,11.2,0,0,0,1.947-2.078c1.447.973,2.894,1.921,4.341,2.894a12.881,12.881,0,0,1-20.337,1.289,13.486,13.486,0,0,1,.973-18.074m2.815,4.867a7.512,7.512,0,0,0-1.237,4.42q5.722-2.368,11.444-4.762a4.733,4.733,0,0,0-3.71-2.6A6.723,6.723,0,0,0,513.142,61.727Z" transform="translate(-373.125 -39.602)" fill="#3639a3"/>
  </g>
</svg>
