<svg xmlns="http://www.w3.org/2000/svg" width="162.282" height="38.679" viewBox="0 0 162.282 38.679">
  <g id="logo1" transform="translate(-24.807 0.002)">
    <path id="Path_20" data-name="Path 20" d="M80.776,74.68c.117,3.354,0,6.122.117,9.3l.238.176,2.414.06c.117,1.059.059,2.414.059,3.649-1,.178-1.767-.059-2.649.178l-.118.293V108a1.21,1.21,0,0,0,.708,1.119,1.684,1.684,0,0,0,1.295-.236v3.18a6.2,6.2,0,0,1-6.3.471c-1.472-.943-1.708-2.768-1.708-4.182.06-4.826.119-9.184.119-14.482l-.059-5.77c-.413-.235-.943-.057-1.415-.175l-.117-.118.117-3.59c.472-.118,1.238.234,1.591-.295.059-3,0-6.357.119-9.241l.232-.06,5.357.058Zm-39.535-.06c.117,1.882.058,3.826.058,5.65l-.179.058-6,.06-.176.236v8.6l.236.118,5.533.06.058.176-.064,5.471-.355.058-5.239.059-.176.177q-.088,5.623,0,11.246c.236.3.706.236,1,.236h6.07l.119.234v5.475l-.294.057H27.7V81.857l-.059-7.181c.234-.236.53-.059.823-.176,4.358.058,8.536,0,12.777.118ZM121.809,85.1c1.178,1.472.705,3.65.824,5.534l-.059,21.959c-1.883.117-3.885.057-5.594.057l-.117-.469V89.338a1.149,1.149,0,0,0-.766-1.059,1.186,1.186,0,0,0-1.117.294,4.7,4.7,0,0,0-.588,2.708v21.311c-1.885.117-3.652.057-5.652.057l-.059-.293.059-28.139c1.764-.177,3.709-.06,5.475-.06l.119,1.649c.059.235.234.117.352,0a4.443,4.443,0,0,1,3.414-2.061,4.517,4.517,0,0,1,3.709,1.353Zm-50.275,0c1.414,1.944,1.059,4.533,1.059,6.653a37.524,37.524,0,0,1-.647,6.827l-.176.119-4.473.178c.232-2.826.468-5.829.411-8.536a2.686,2.686,0,0,0-.647-1.824.792.792,0,0,0-.944-.12c-.942.707-.766,2.178-.883,3.3L65.175,99l-.058,13.654c-1.765.117-3.886.061-5.594.061l-.115-.471.057-28.021a28.2,28.2,0,0,1,3.888.059A7.625,7.625,0,0,1,65,84.217c.175.588,0,1,.175,1.649l.059.057c.472-.647.943-1.531,1.766-1.824,1.532-.531,3.474-.472,4.534,1Zm-14.811.705a6.176,6.176,0,0,1,.353,2.353l-.059,24.373-.294.057H51.482l-.117-.232V89.276c-.119-.413-.236-.883-.708-1.061a1.258,1.258,0,0,0-1.117.178c-.823.941-.649,2.531-.649,3.708v20.428c-2,.117-3.59.057-5.709.057l-.059-.232L43.182,84.1a18.231,18.231,0,0,1,2.533.06l.411-.118,2.531.059a15.2,15.2,0,0,1,.119,1.647c.115.176.292.061.354-.057a4.591,4.591,0,0,1,3.591-2.062c1.528.058,3.353.587,4,2.178Zm49.6-1.411-.059,28.2-.236.057h-5.594l-.057-.586.057-27.846c2.064-.118,3.828,0,5.83-.06Z" transform="translate(-2.834 -74.502)" fill="#fff" fill-rule="evenodd"/>
    <path id="Path_21" data-name="Path 21" d="M96.494,86.217c1.471,2.237.944,4.944,1.061,7.712v14.422a.815.815,0,0,0,.705.709c.355.117.648-.178.826,0v3.414a4.923,4.923,0,0,1-4.358.234,3.625,3.625,0,0,1-1.059-1.236c-.117-.119-.292,0-.353.117-1.589,1.943-4.355,1.768-6.477,1.119-3.295-1.59-3.354-5.709-3.178-8.889.294-2.473,1.294-5.242,3.71-6.477,1.353-1,3.473-.588,4.355-2.295a12.043,12.043,0,0,0,.412-6.122,1.413,1.413,0,0,0-.883-.942,1.345,1.345,0,0,0-1.236.236c-1,.942-.706,2.473-.706,3.65a23.319,23.319,0,0,0,.472,2.825l-.177.06-4.769.116a13.736,13.736,0,0,1-.529-2.708,7.2,7.2,0,0,1,1.942-6.593c2.178-2.121,5.475-2.237,8.241-1.06a5.032,5.032,0,0,1,2,1.708ZM92.021,99.582c-2.944,1.531-2.414,5.414-2.414,7.889a2.663,2.663,0,0,0,.589,1.766,1,1,0,0,0,1.059.115,1.548,1.548,0,0,0,.883-1.115,79.545,79.545,0,0,0,.175-8.42C92.314,99.639,92.139,99.582,92.021,99.582Zm95.192-24.55v8.831l.176.176,2.178.06.059.176v3.474l-.119.116-2.176.06-.117.236-.061,4.531c-.176.119.061.179,0,.354l.061,15.071a.984.984,0,0,0,.588.824,4.347,4.347,0,0,0,2.121-.176v3.061c-.236.412-.768.529-1.178.707a7.833,7.833,0,0,1-5.77-.059c-1.65-1-1.885-3.062-1.768-4.652.061-6.416.061-13.364.117-19.722-.352-.411-1-.175-1.469-.235l-.119-.294.061-3.415c.586-.235,1.176.119,1.586-.293l.178-9.243c.354-.177.59,0,.941-.118l4.65.06.061.47Zm-4.121,28.378c-.295.115-.826-.119-.766.35l1.059,3.945.119,2.941.115.3c.414,0,1,.117,1.355-.176v-2.65l.883-3.414a1.835,1.835,0,0,0,.119-1.236,2.057,2.057,0,0,0-1.178.059l-.471,2.119a9.836,9.836,0,0,1-.473-1.885c0-.41-.526-.35-.762-.35ZM160.545,86.277c1.885,3.59,1.824,7.829,1.824,11.834l-.234,1.293c-2.473.117-5.006,0-7.535.061a.37.37,0,0,0-.295.352,71.418,71.418,0,0,0,.236,7.949c.117.471.234,1.057.766,1.3a1.508,1.508,0,0,0,1.234,0,2.045,2.045,0,0,0,.764-1.533,50.836,50.836,0,0,0,0-5.238l4.359.059.354.061c.236,2.588.586,5.238-.178,7.828a3.937,3.937,0,0,1-3.121,2.59c-2.766.295-6.24.707-8.123-1.883-2.061-3.473-1.883-7.477-2.061-11.305.059-4.414.178-8.535,2-12.479.941-1.826,2.887-3.533,4.947-3.475a5.342,5.342,0,0,1,5.063,2.591Zm-4.826,1.237c-.59.058-.828.706-.943,1.177a31.013,31.013,0,0,0-.531,6.71l.18.177h2.355l.232-.118a25.112,25.112,0,0,0,0-4.709,9.514,9.514,0,0,0-.471-2.825.948.948,0,0,0-.822-.412Zm-4.475,15.9-.236.115v7.242l.119.176,2.529.057.236-.174a1.265,1.265,0,0,0-.117-1.121c-.354-.117-.824,0-1.3-.174v-1.709l.883-.057c.414-.18.178-.65.236-1-.176-.412-.705-.236-1.061-.354-.174-.412,0-.941-.059-1.414-.057-.586.768-.176,1.178-.352a1.2,1.2,0,0,0-.059-1.178l-2.352-.055Zm8.24,0c-.469.057-.941-.061-1.3.174v7.123l.121.236,2.412.057c.59.119.412-.7.412-1.057-.234-.592-1-.119-1.414-.412V108c0-.414.59-.178.826-.295.354-.119.236-.646.236-.941-.119-.473-.707-.176-1.062-.354v-1.238c-.176-.883.885-.232,1.238-.646-.059-.293.117-.766-.117-1.059l-1.355-.057Zm13.6-12.366c-.178-.883.234-1.942-.531-2.649a1.059,1.059,0,0,0-1.234,0c-.943.767-.531,1.767-.768,2.886l-.059,21.194-.234.117h-5.416l-.059-.883.059-27.552c1.943-.117,3.533-.058,5.533-.058.176.587-.117,1.294.236,1.767a8.693,8.693,0,0,1,1.709-1.59,4.437,4.437,0,0,1,5.885,1.236,4.487,4.487,0,0,1,.473,2.3v24.667l-.3.117h-5.3l-.059-.178.059-21.192v-.178Zm-5.945,12.366c-.354.057-.941-.119-1.238.174l-.061,7.123.119.236a3.192,3.192,0,0,0,1.3-.061l.115-2.234a20.113,20.113,0,0,1,.885,2.059c.178.473.65.176,1.117.236.18,0,.533.057.533-.3-.473-1.295-1.061-2.529-1.473-3.824l1.295-3v-.354c-.412,0-1.059-.117-1.354.059-.41.648-.588,1.471-1,2l-.057-1.885-.174-.232Zm8.771.057a3.168,3.168,0,0,0-1.295.059c-.119,2.473-.059,4.826-.059,7.182l.176.236h2.648l.236-.117a2.047,2.047,0,0,0-.117-1.178c-.531-.117-.941.117-1.473-.178V103.7a.2.2,0,0,0-.116-.234Zm-38.5-18.72.768,1.059h.176c.943-1.884,3.061-2.238,4.828-2.061a4.092,4.092,0,0,1,3.121,1.767,7.168,7.168,0,0,1,.473,3l-.061,24.018-.295.115-5.18-.057v-3.826l-.059-19.546c-.061-.411-.354-.825-.709-.765a1.351,1.351,0,0,0-1.176.176c-.707,1.061-.531,2.355-.59,3.414l-.057,20.488-.236.115h-5.182l-.057-.469V89.338a1.381,1.381,0,0,0-.414-.883,1.509,1.509,0,0,0-1.236-.06c-1.061.707-.646,2.062-.824,3l-.059,21.194-.178.057h-5.238a20.688,20.688,0,0,1,0-2.705c.178-.061-.117-.178-.059-.238l.059-25.488.178-.06h5.18c.178.59,0,1.177.234,1.649.355-.176.473-.648.707-.883a4.411,4.411,0,0,1,5.886-.176Zm7.832,18.9a15.344,15.344,0,0,1-.414,2.473l-.232-2.355-.117-.234c-.354-.115-.824-.176-1.061.117l-.352,2.3a21.277,21.277,0,0,1-.238-2.238c-.178-.41-.705-.176-1.061-.234a.235.235,0,0,0-.234.293l.766,6.887.117.3c.412,0,.707.176,1.119-.117l.41-2.945c.18.885.236,1.824.355,2.766l.178.3c.295.057.822.176,1.059-.117l.883-7.125c-.178-.414-.941-.295-1.178-.062Z" transform="translate(-2.834 -74.502)" fill="#fff" fill-rule="evenodd"/>
  </g>
</svg>
