<svg xmlns="http://www.w3.org/2000/svg" width="187.353" height="35.457" viewBox="0 0 187.353 35.457">
  <g id="logo3" transform="translate(-2.793 -78.529)">
    <path id="Path_1132" data-name="Path 1132" d="M43.2,84.506h5.83v23.649H43.2v4.62H82.473v-11.11h-5.94v6.49H54.974V98.806h9.569v3.96h5.94V90.226h-5.94v3.96H54.974v-9.68H76.533V91h5.94V79.887H43.2v4.619Z" fill="#fff" fill-rule="evenodd"/>
    <path id="Path_1133" data-name="Path 1133" d="M111.149,93.307l11.77-8.8H128.2V79.888H111.479v4.619h3.411L97.62,97.487V84.507h5.83V79.888h-17.6v4.619h5.83v23.649h-5.83v4.62h17.6v-4.62H97.62v-4.675l9.074-6.82,10.174,11.5h-5.389v4.62h17.489v-4.62h-4.674L111.149,93.307Zm-89.822.44c-7.149,0-13.144-.11-13.144-5.06,0-4.729,8.415-5.169,11.384-5.169s13.64,1.76,13.64,5.83V91h5.939V79.888H33.207v2.2a36.145,36.145,0,0,0-13.584-3.135c-5.939,0-16.774,1.375-16.83,9.845-.056,8.635,8.69,9.845,18.424,9.845,5.61,0,12.979-.275,12.979,5s-8.8,5.829-11.549,5.829-13.31-.989-13.31-5.939v-1.87H3.4v11.109h5.94v-1.869c2.2,1.319,7.81,3.079,13.64,3.079s16.664-.935,16.664-10.449C39.641,93.967,28.477,93.747,21.327,93.747Z" fill="#fff" fill-rule="evenodd"/>
    <path id="Path_1134" data-name="Path 1134" d="M125.779,78.529c-10.7,0-19.365,7.835-19.365,17.5s8.67,17.5,19.365,17.5,19.367-7.835,19.367-17.5S136.476,78.529,125.779,78.529Zm0,30.333c-7.773,0-14.076-5.746-14.076-12.833s6.3-12.834,14.076-12.834,14.078,5.746,14.078,12.834S133.554,108.862,125.779,108.862ZM86.706,84.506h5.83v23.649h-5.83v4.62h17.6v-4.62h-5.83V84.506h5.83V79.887h-17.6Z" transform="translate(45)" fill="#fff" fill-rule="evenodd"/>
  </g>
</svg>
