<svg xmlns="http://www.w3.org/2000/svg" width="188.423" height="38.197" viewBox="0 0 188.423 38.197">
  <path id="logo2" d="M117.576,12.874l1.978,18.381h5L129.015,0H124.09l-2.016,17.838h-.233L119.786,0h-4.421l-2.172,17.838h-.233L111.061,0h-5.2l4.5,31.255h5l2.016-18.381h.194Zm-105.826,0,1.978,18.381h5L23.189,0H18.226L16.209,17.838h-.233L13.921,0H9.5L7.368,17.838H7.135L5.2,0H0L4.5,31.255h5l2.016-18.381h.233ZM36.568,30.79h4.5V17.8c0-2.986.737-4.188,1.823-4.188,1.357,0,1.357,1.706,1.357,4.072V30.829h4.5V17.8c0-2.986.737-4.188,1.823-4.188,1.357,0,1.357,1.706,1.357,4.072V30.829h4.5V17.062C56.422,12.176,55.8,9,52.234,9c-2.249,0-3.18,1.125-3.878,2.831H48.2C47.658,10.082,46.65,9,44.75,9a3.609,3.609,0,0,0-3.684,2.714h-.155V9.462H36.568V30.79Zm-14.619-10.7c0,7.445,1.9,11.168,6.747,11.168s6.747-3.723,6.747-11.168S33.543,8.958,28.7,8.958s-6.747,3.723-6.747,11.129M156,30.79h4.5V24.74l1.047-1.9,2.482,7.988h4.847l-4.5-13.185,4.5-8.182h-4.77l-3.645,7.6V3.18h-4.5V30.79Zm-5.584-7.019c0,1.978-.543,3.568-1.823,3.568-1.667,0-2.327-2.4-2.327-5.856H154.8c0-.582.039-1.28.039-1.823C154.841,13.417,153.717,9,148.4,9c-4.886,0-6.709,4.808-6.709,11.168,0,7.407,2.21,11.129,6.709,11.129,3.606,0,5.856-2.172,6.321-6.709l-4.3-.814Zm-84.032,0c0,1.978-.543,3.568-1.823,3.568-1.667,0-2.327-2.4-2.327-5.856H70.77c0-.582.039-1.28.039-1.823C70.809,13.417,69.684,9,64.372,9c-4.886,0-6.709,4.808-6.709,11.168,0,7.407,2.21,11.129,6.709,11.129,3.606,0,5.856-2.172,6.321-6.709l-4.3-.814Zm69.956,0c0,1.978-.543,3.568-1.823,3.568-1.667,0-2.327-2.4-2.327-5.856h8.531c0-.582.039-1.28.039-1.823C140.765,13.417,139.64,9,134.328,9c-4.886,0-6.709,4.808-6.709,11.168,0,7.407,2.21,11.129,6.709,11.129,3.606,0,5.856-2.172,6.321-6.709l-4.3-.814Zm38-14.348,4.459,20.552a9.419,9.419,0,0,1,.31,2.133,1.9,1.9,0,0,1-2.172,2.133,5.313,5.313,0,0,1-1.512-.194l-.737,3.917a10.921,10.921,0,0,0,2.327.233c4.033,0,5.468-2.055,6.2-5.429l5.2-23.344h-4.615l-1.59,9.423c-.233,1.28-.5,2.676-.659,3.917h-.233c-.116-1.2-.349-2.559-.543-3.839l-1.435-9.5h-5ZM84.381,17.3c0-4.886-.62-8.337-4.11-8.337-2.249,0-3.141,1.125-3.839,2.831h-.155V9.423H71.934V30.79h4.459V17.8c0-2.986.776-4.188,2.016-4.188,1.474,0,1.474,1.706,1.474,4.072V30.829h4.5V17.3ZM99.776,14.93c-.116-3.8-1.667-5.972-5.468-5.972-3.141,0-5.972,1.745-5.972,5.817,0,3.645,2.249,5.274,4.266,6.747,1.59,1.2,3.025,2.249,3.025,4.11,0,.931-.465,1.784-1.551,1.784-1.59,0-1.823-1.551-1.861-3.3l-4.227.737c.116,4.11,2.133,6.437,5.894,6.437,3.141,0,6.088-1.474,6.088-5.972,0-3.568-2.327-5.313-4.343-6.864-1.435-1.163-2.908-2.365-2.908-3.917a1.533,1.533,0,0,1,1.474-1.706c1.4,0,1.4,1.9,1.435,2.87l4.149-.776Zm69.452,15.86h4.5V3.18h-4.5V30.79ZM26.563,20.087c0-5.158.465-7.135,2.133-7.135s2.133,1.978,2.133,7.135-.465,7.174-2.133,7.174c-1.667.039-2.133-1.978-2.133-7.174M84.924,3.219V7.252h1.745c-.039,1.28-.659,1.861-1.745,1.9v2.327c3.568-.116,4.5-2.792,4.5-5.7V3.219ZM62.239,18.071c.078-2.055.31-5.119,2.172-5.119,1.706,0,1.823,2.986,1.823,5.119Zm84.071,0c.078-2.055.31-5.119,2.172-5.119,1.706,0,1.823,2.986,1.823,5.119H146.31Zm-14.076,0c.078-2.055.31-5.119,2.172-5.119,1.706,0,1.823,2.986,1.823,5.119ZM28.463,3.955V7.1h-.892V3.955h-1.2V3.219h3.3v.737ZM33.117,7.1V5.545H31.449V7.1h-.892V3.219h.892V4.847h1.667V3.219h.892V7.1Zm2.055,0V3.219H38v.737H36.064v.892h1.745v.737H36.064V6.4H38.08v.737c0-.039-2.908-.039-2.908-.039Zm7.717,0-.233-.737V6.4H41.144V6.36l-.233.737h-.892l1.512-3.878h.853L43.9,7.1ZM41.88,4.343l-.5,1.4h1.047l-.543-1.4Zm4.188,2.831c-1.125,0-1.629-.62-1.629-1.318V3.219h.892v2.6c0,.349.233.62.737.62s.737-.233.737-.62v-2.6h.853V5.856c0,.7-.5,1.318-1.59,1.318m4.072,0a3.5,3.5,0,0,1-1.551-.349l.271-.7a2.475,2.475,0,0,0,1.2.31c.5,0,.853-.194.853-.5,0-.349-.31-.388-.814-.465-.155,0-.233-.039-.388-.039-.62-.116-1.008-.388-1.008-1.047,0-.776.7-1.2,1.551-1.2a2.9,2.9,0,0,1,1.435.31l-.31.659A2.2,2.2,0,0,0,50.3,3.917c-.427,0-.737.194-.737.427,0,.31.388.349.814.427.078,0,.233.039.31.039.737.155,1.086.427,1.086,1.125.078.814-.659,1.241-1.629,1.241m4.3-3.219V7.1h-.892V3.955h-1.2V3.219h3.257v.737H54.445Zm4.3,3.141-.737-1.435h-.582V7.1h-.892V3.219h1.784c1.086,0,1.318.582,1.318,1.125v.233a.99.99,0,0,1-.737.969L59.718,7.1h-.969Zm.039-2.753c0-.233-.194-.388-.62-.388h-.737V5h.737c.427,0,.659-.155.659-.427l-.039-.233ZM63.131,7.1,62.9,6.36V6.4H61.386V6.36l-.233.737h-.892l1.512-3.878h.853L64.139,7.1H63.131Zm-.969-2.753-.5,1.4H62.7ZM64.876,7.1V3.219h.892V6.36h1.861V7.1Zm3.645-3.878h.892V7.1h-.892ZM73.136,7.1l-.271-.737V6.4H71.352V6.36l-.233.737h-.931L71.7,3.219h.892L74.066,7.1ZM72.089,4.343l-.5,1.4h1.047ZM77.4,7.1,75.656,4.731V7.1h-.814V3.219h.814l1.745,2.4v-2.4h.776V7.1H77.4Z" fill="#fff"/>
</svg>
