<svg xmlns="http://www.w3.org/2000/svg" width="148.411" height="52.864" viewBox="0 0 148.411 52.864">
  <g id="logo4" transform="translate(-16.84 -70.001)">
    <path id="Path_1124" data-name="Path 1124" d="M153.379,94.949,164.59,82.42h-5.715l-8.242,9.122-7.365-9.122h-9.561l11.43,14.067-11.869,13.188h5.824l8.793-9.779,5.6,7.143a7.87,7.87,0,0,0,5.5,2.637h6.266L153.379,94.949ZM35.744,86.267l-8.9,12.418a.691.691,0,0,1-.879.33c-.439-.109-.33-.879-.33-.879V70H16.84v36.817A4.067,4.067,0,0,0,19.478,111a4.66,4.66,0,0,0,4.176-.881,12.483,12.483,0,0,0,1.759-2.088L39.151,88.9s.549-.77,1.209-.549c.66.11.66.879.66.879v21.32H49.7V88.9c0-1.428-.219-5.165-3.957-6.484a7.546,7.546,0,0,0-7.253.879A11.226,11.226,0,0,0,35.744,86.267Zm79.568,0-8.791,12.418a.833.833,0,0,1-.988.33c-.33-.109-.33-.879-.33-.879V83.19H96.52v23.628c0,.66-.109,3.3,2.529,4.178a4.66,4.66,0,0,0,4.176-.881,9.386,9.386,0,0,0,1.869-2.088L118.721,88.9s.549-.77,1.209-.549c.658.11.658.879.658.879v21.32h8.793V88.9h-.109c0-1.428-.221-5.165-3.957-6.484a7.548,7.548,0,0,0-7.254.879,11.215,11.215,0,0,0-2.749,2.968ZM70.583,107.588,79.375,95.17c.22-.33.549-.55.879-.33.44.11.44.879.44.879v27.146h8.682V87.037c0-.659,0-3.3-2.528-4.176a4.657,4.657,0,0,0-4.176.879A9.34,9.34,0,0,0,80.8,85.828L67.176,104.84s-.55.881-1.209.66c-.659-.109-.659-.879-.659-.879V83.3H56.516v21.651c0,1.428.22,5.164,4.066,6.484a7.6,7.6,0,0,0,7.254-.881,11.15,11.15,0,0,0,2.747-2.966Z" fill="#fff" fill-rule="evenodd"/>
  </g>
</svg>
