<svg xmlns="http://www.w3.org/2000/svg" width="152.664" height="49.844" viewBox="0 0 152.664 49.844">
  <g id="logo5" transform="translate(-139.457 -138.994)">
    <path id="Path_1126" data-name="Path 1126" d="M180.68,150.038c-7.4,0-13.359,4.107-13.359,13.356,0,9.037,5.957,13.354,13.359,13.354,7.375,0,13.344-4.317,13.344-13.354,0-9.242-5.969-13.356-13.344-13.356m0,20.357c-3.3,0-5.785-2.513-5.785-7,0-4.88,2.48-7.015,5.785-7.015s5.77,2.134,5.77,7.015c0,4.485-2.477,7-5.77,7m54.781-.229a17.193,17.193,0,0,1-3.01.66c-2.289,0-3.658-1.08-3.658-4.7v-9.438a.247.247,0,0,1,.248-.248h6.184a.243.243,0,0,0,.248-.249h0l0-4.858a.812.812,0,0,0-.809-.808h-5.623a.243.243,0,0,1-.248-.246v-6.682c0-.2-.09-.264-.3-.264a21.419,21.419,0,0,0-5.541,3.785,5.753,5.753,0,0,0-1.465,3.822v16.417c0,7.123,4.113,9.35,8.539,9.35a11.6,11.6,0,0,0,5.27-.922.813.813,0,0,0,.422-.715v-4.651a.252.252,0,0,0-.252-.249m-85.438-19.645h-9.734a.824.824,0,0,0-.832.82v29.888a5.77,5.77,0,0,0,1.465,3.824,21.377,21.377,0,0,0,5.551,3.785c.215,0,.3-.058.3-.265V176.53a.246.246,0,0,1,.25-.253h2.846c9.127,0,14.672-5.15,14.672-12.586s-4.954-13.17-14.519-13.17m0,19.066h-3a.247.247,0,0,1-.246-.249V157.452a.247.247,0,0,1,.246-.249h2.857c5.4,0,7.443,2.962,7.443,6.123,0,1.792-.866,6.261-7.3,6.261m64.588-7.317a15.027,15.027,0,0,0-5.139-1.782c-.318-.074-1.5-.339-1.771-.4-2.178-.482-3.9-.865-3.9-2.277,0-1.219,1.178-2.014,2.99-2.014a26.34,26.34,0,0,1,8.965,1.765.315.315,0,0,0,.426-.272v-5.047a.855.855,0,0,0-.6-.8,29.91,29.91,0,0,0-7.9-1.4,13.758,13.758,0,0,0-8.2,2.21,7.2,7.2,0,0,0-3.029,6.05c0,5.672,4.648,6.748,9.041,7.787.676.158.57.134.828.188,2.006.438,4.084.9,4.084,2.551a1.734,1.734,0,0,1-.559,1.279c-.562.557-1.424.8-3.078.8a44.48,44.48,0,0,1-9.688-1.826.4.4,0,0,0-.107-.02.3.3,0,0,0-.311.3v5.057a.83.83,0,0,0,.562.787,32.7,32.7,0,0,0,8.986,1.543c7.6,0,11.5-2.976,11.5-8.4a6.743,6.743,0,0,0-3.1-6.08m-46.078-22.124v2.769c0,.718.262,1.021.867,1.021h22.568c.613,0,.875-.3.875-1.021v-2.769a1.17,1.17,0,0,0-1.158-1.152h-22a1.17,1.17,0,0,0-1.154,1.152" fill="#fff"/>
    <path id="Path_1127" data-name="Path 1127" d="M180.68,150.038c-7.4,0-13.359,4.107-13.359,13.356,0,9.037,5.957,13.354,13.359,13.354,7.375,0,13.344-4.317,13.344-13.354,0-9.242-5.969-13.356-13.344-13.356m0,20.357c-3.3,0-5.785-2.513-5.785-7,0-4.88,2.48-7.015,5.785-7.015s5.77,2.134,5.77,7.015c0,4.485-2.477,7-5.77,7" transform="translate(71)" fill="#fff"/>
    <path id="Path_1128" data-name="Path 1128" d="M255.578,150.145a15,15,0,0,0-5.072,1.032,12.371,12.371,0,0,0-2.727,1.553l-.209.161a.392.392,0,0,1-.117.033.214.214,0,0,1-.217-.212v-1.938a.162.162,0,0,0-.162-.159H240.81a.735.735,0,0,0-.744.728v24.689a.16.16,0,0,0,.162.153h6.842a.162.162,0,0,0,.162-.153V158.6a.468.468,0,0,1,.186-.337c.318-.194,1.232-.754,2.387-1.423a6.977,6.977,0,0,1,3.3-1.022c2.715,0,3.875,1.454,3.875,4.867v15.347a.154.154,0,0,0,.154.153h6.828a.148.148,0,0,0,.156-.153v-16.6c0-6.079-2.953-9.289-8.543-9.289" transform="translate(28)" fill="#fff"/>
  </g>
</svg>
