<svg xmlns="http://www.w3.org/2000/svg" width="73.11" height="23.16" viewBox="0 0 73.11 23.16">
  <path id="logo" d="M17.76-7.53a8.075,8.075,0,0,1-.66,3.315,7.433,7.433,0,0,1-1.8,2.52,8.24,8.24,0,0,1-2.64,1.6A8.96,8.96,0,0,1,9.45.48,9,9,0,0,1,6.255-.09a8.029,8.029,0,0,1-2.64-1.6A7.534,7.534,0,0,1,1.83-4.215,8.075,8.075,0,0,1,1.17-7.53a7.97,7.97,0,0,1,.66-3.3,7.41,7.41,0,0,1,1.785-2.49,7.762,7.762,0,0,1,2.64-1.56,9.444,9.444,0,0,1,3.195-.54,9.406,9.406,0,0,1,3.21.54,7.957,7.957,0,0,1,2.64,1.56,7.313,7.313,0,0,1,1.8,2.49A7.97,7.97,0,0,1,17.76-7.53Zm-4.74,0a4.263,4.263,0,0,0-.24-1.41,3.729,3.729,0,0,0-.69-1.215,3.507,3.507,0,0,0-1.11-.855,3.379,3.379,0,0,0-1.53-.33,3.379,3.379,0,0,0-1.53.33,3.338,3.338,0,0,0-1.095.855,3.663,3.663,0,0,0-.66,1.215A4.521,4.521,0,0,0,5.94-7.53a4.521,4.521,0,0,0,.225,1.41A3.858,3.858,0,0,0,6.84-4.875a3.322,3.322,0,0,0,1.11.885,3.379,3.379,0,0,0,1.53.33,3.379,3.379,0,0,0,1.53-.33,3.322,3.322,0,0,0,1.11-.885A3.858,3.858,0,0,0,12.8-6.12,4.521,4.521,0,0,0,13.02-7.53ZM20.94,0V-22.68h4.98V0ZM35.16-19.71a2.543,2.543,0,0,1-.225,1.065,2.748,2.748,0,0,1-.6.855,2.766,2.766,0,0,1-.9.57,2.922,2.922,0,0,1-1.095.21,2.756,2.756,0,0,1-2.01-.8,2.575,2.575,0,0,1-.81-1.905,2.624,2.624,0,0,1,.21-1.035,2.454,2.454,0,0,1,.6-.855,3.248,3.248,0,0,1,.9-.585,2.719,2.719,0,0,1,1.11-.225,2.922,2.922,0,0,1,1.095.21,2.766,2.766,0,0,1,.9.57,2.748,2.748,0,0,1,.6.855A2.543,2.543,0,0,1,35.16-19.71ZM29.88,0V-14.94H34.8V0ZM54.75,0H48.66L43.77-7.17h-.09V0H38.73V-22.68h4.95v13.8h.09l4.77-6.06h5.97L48.75-8.19Zm7.14-19.71a2.543,2.543,0,0,1-.225,1.065,2.748,2.748,0,0,1-.6.855,2.766,2.766,0,0,1-.9.57,2.922,2.922,0,0,1-1.1.21,2.756,2.756,0,0,1-2.01-.8,2.575,2.575,0,0,1-.81-1.905,2.624,2.624,0,0,1,.21-1.035,2.454,2.454,0,0,1,.6-.855,3.248,3.248,0,0,1,.9-.585,2.719,2.719,0,0,1,1.11-.225,2.922,2.922,0,0,1,1.1.21,2.766,2.766,0,0,1,.9.57,2.748,2.748,0,0,1,.6.855A2.543,2.543,0,0,1,61.89-19.71ZM56.61,0V-14.94h4.92V0ZM70.77-11.25v5.7a2.556,2.556,0,0,0,.4,1.575,1.739,1.739,0,0,0,1.455.525,5.231,5.231,0,0,0,.765-.06,2.625,2.625,0,0,0,.675-.18l.06,3.6a8.122,8.122,0,0,1-1.29.315A9.131,9.131,0,0,1,71.28.36a7.356,7.356,0,0,1-2.52-.375A3.907,3.907,0,0,1,67.125-1.1a4.234,4.234,0,0,1-.885-1.68,8.145,8.145,0,0,1-.27-2.175v-6.3h-2.4v-3.69h2.37v-3.93h4.83v3.93h3.51v3.69Z" transform="translate(-1.17 22.68)" fill="#0d1a2f"/>
</svg>
