<svg xmlns="http://www.w3.org/2000/svg" width="171.5" height="43.396" viewBox="0 0 171.5 43.396">
  <g id="slack" opacity="0.55">
    <path id="Path_16200" data-name="Path 16200" d="M799.8,43.111l2.14-4.973a14.272,14.272,0,0,0,8.431,2.627c2.243,0,3.663-.864,3.663-2.175-.034-3.663-13.439-.8-13.542-9.981-.034-4.665,4.109-8.259,9.981-8.259a15.371,15.371,0,0,1,9.467,2.833l-2,5.076a15.079,15.079,0,0,0-7.807-2.49c-1.832,0-3.039.864-3.039,1.969.034,3.595,13.542,1.626,13.679,10.4,0,4.768-4.041,8.122-9.844,8.122A18.975,18.975,0,0,1,799.8,43.111m82.19-6.771a6.181,6.181,0,1,1,0-6.078l5.906-3.279a12.959,12.959,0,1,0,0,12.65ZM823.741,9.6h7.4V45.773h-7.4Zm67.056,0V45.773h7.4V34.92l8.774,10.853h9.467l-11.161-12.89L915.6,20.857h-9.055l-8.362,9.981V9.6Z" transform="translate(-744.934 -8.941)" fill="#3639a3" fill-rule="evenodd"/>
    <path id="Path_16201" data-name="Path 16201" d="M1319.368,182.266a6.809,6.809,0,0,1-5.769,3.073,6.181,6.181,0,1,1,0-12.362,6.812,6.812,0,0,1,5.769,3.176Zm0-15.545v2.936c-1.207-2.037-4.212-3.457-7.361-3.457-6.5,0-11.607,5.735-11.607,12.924s5.111,12.993,11.607,12.993c3.142,0,6.147-1.413,7.361-3.457V191.6h7.4V166.721Z" transform="translate(-1211.193 -154.799)" fill="#3639a3"/>
    <g id="Group_430" data-name="Group 430">
      <path id="Path_16202" data-name="Path 16202" d="M9.624,337.962A4.562,4.562,0,1,1,5.062,333.4H9.624Zm2.278,0a4.562,4.562,0,0,1,9.124,0v11.4a4.562,4.562,0,1,1-9.124,0Z" transform="translate(-0.466 -310.529)" fill="#3639a3" fill-rule="evenodd"/>
      <path id="Path_16203" data-name="Path 16203" d="M16,9.124a4.562,4.562,0,1,1,4.562-4.562V9.124Zm0,2.312a4.562,4.562,0,0,1,0,9.124H4.562a4.562,4.562,0,1,1,0-9.124Z" transform="translate(0)" fill="#3639a3" fill-rule="evenodd"/>
      <path id="Path_16204" data-name="Path 16204" d="M344.8,16a4.562,4.562,0,1,1,4.562,4.562H344.8Zm-2.277,0a4.562,4.562,0,0,1-9.124,0V4.562a4.562,4.562,0,0,1,9.124,0Z" transform="translate(-310.529 0)" fill="#3639a3" fill-rule="evenodd"/>
      <path id="Path_16205" data-name="Path 16205" d="M337.962,344.8a4.562,4.562,0,1,1-4.562,4.562V344.8Zm0-2.277a4.562,4.562,0,0,1,0-9.124H349.4a4.562,4.562,0,1,1,0,9.124Z" transform="translate(-310.529 -310.529)" fill="#3639a3" fill-rule="evenodd"/>
    </g>
  </g>
</svg>
