<svg xmlns="http://www.w3.org/2000/svg" width="108.426" height="44.135" viewBox="0 0 108.426 44.135">
  <g id="uber" transform="translate(0 6.495)" opacity="0.55">
    <path id="Path_16209" data-name="Path 16209" d="M6.238,26.882A9.271,9.271,0,0,0,8.141,30a8.189,8.189,0,0,0,2.881,1.983,9.4,9.4,0,0,0,3.621.687,8.961,8.961,0,0,0,3.568-.714,8.778,8.778,0,0,0,2.908-2.009,9.108,9.108,0,0,0,1.93-3.093,11.173,11.173,0,0,0,.687-4.018V-6.495h5.551v43.5h-5.5V33.569a12.744,12.744,0,0,1-4.361,3.013,13.822,13.822,0,0,1-5.419,1.057,14.671,14.671,0,0,1-5.525-1.031,12.935,12.935,0,0,1-4.441-2.934A13.84,13.84,0,0,1,1.084,29.1,15.677,15.677,0,0,1,0,23.155V-6.495H5.551V22.838a11.389,11.389,0,0,0,.687,4.044ZM38.856-6.495V13.481a14.14,14.14,0,0,1,4.282-2.934,12.837,12.837,0,0,1,5.286-1.084,13.941,13.941,0,0,1,5.551,1.11,13.985,13.985,0,0,1,7.507,7.507,13.81,13.81,0,0,1,1.11,5.5,13.621,13.621,0,0,1-1.11,5.471,14.054,14.054,0,0,1-7.507,7.48,13.942,13.942,0,0,1-5.551,1.11,13.021,13.021,0,0,1-5.313-1.084A14.044,14.044,0,0,1,38.8,33.622v3.383H33.516v-43.5Zm.608,33.721a9.2,9.2,0,0,0,1.983,2.961,9.567,9.567,0,0,0,2.96,2.009,9,9,0,0,0,3.648.74,8.87,8.87,0,0,0,3.595-.74,9.248,9.248,0,0,0,2.934-2.009,9.8,9.8,0,0,0,1.982-2.961,9,9,0,0,0,.74-3.648,9.188,9.188,0,0,0-.74-3.674,9.717,9.717,0,0,0-1.982-2.987,8.9,8.9,0,0,0-2.934-1.982A9.294,9.294,0,0,0,41.5,16.917,9.483,9.483,0,0,0,39.49,19.9a9.187,9.187,0,0,0-.74,3.674,9.286,9.286,0,0,0,.714,3.648ZM65.6,18.133a14.382,14.382,0,0,1,2.908-4.467,13.987,13.987,0,0,1,15.278-3.093,12.79,12.79,0,0,1,4.282,2.934,13.411,13.411,0,0,1,2.8,4.441,15.157,15.157,0,0,1,1,5.577V25.27H69.94A9.041,9.041,0,0,0,71,28.31a9.164,9.164,0,0,0,1.982,2.432,9.06,9.06,0,0,0,2.7,1.612,8.8,8.8,0,0,0,3.2.582,9.249,9.249,0,0,0,7.771-3.965L90.5,31.825a14.083,14.083,0,0,1-11.63,5.762,14.888,14.888,0,0,1-5.63-1.057A13.71,13.71,0,0,1,68.7,33.569a14.045,14.045,0,0,1-3.04-4.467,14.424,14.424,0,0,1-.053-10.97Zm7.428-2.088a9.01,9.01,0,0,0-2.987,5H86.487a8.745,8.745,0,0,0-2.934-5,8.31,8.31,0,0,0-10.52,0Zm28.838.608a7.158,7.158,0,0,0-1.692,5.022V37.006H94.839V10.044h5.286v3.331a7.515,7.515,0,0,1,2.617-2.59,7.406,7.406,0,0,1,3.833-.952h1.85V14.8h-2.22a5.611,5.611,0,0,0-4.335,1.85Z" fill="#3639a3"/>
  </g>
</svg>
